<svg width="151" height="138" viewBox="0 0 151 138" fill="none" xmlns="http://www.w3.org/2000/svg">
<rect width="151" height="138" fill="white"/>
<path d="M60.894 45.168C60.894 48.568 60.18 52.444 58.752 56.796C57.392 61.148 55.08 65.84 51.816 70.872C48.62 75.836 44.744 80.426 40.188 84.642C35.632 88.858 29.852 92.53 22.848 95.658C15.844 98.718 8.228 100.554 0 101.166V83.01C4.488 82.602 8.5 81.888 12.036 80.868C10.608 74.952 9.894 67.846 9.894 59.55C9.894 52.614 10.982 46.018 13.158 39.762C15.334 33.438 18.564 28.202 22.848 24.054C27.2 19.838 32.096 17.73 37.536 17.73C45.22 17.73 51.034 20.212 54.978 25.176C58.922 30.072 60.894 36.736 60.894 45.168ZM27.54 73.218C32.844 69.206 36.822 64.548 39.474 59.244C42.194 53.872 43.554 49.044 43.554 44.76C43.554 38.232 41.548 34.968 37.536 34.968C35.156 34.968 33.116 36.464 31.416 39.456C29.716 42.38 28.492 45.848 27.744 49.86C27.064 53.804 26.724 57.884 26.724 62.1C26.724 66.112 26.996 69.818 27.54 73.218ZM32.946 93.414C35.666 99.534 39.372 104.294 44.064 107.694C48.824 111.026 54.06 113.1 59.772 113.916V136.254C51.34 135.302 43.112 131.596 35.088 125.136C27.064 118.676 21.114 110.346 17.238 100.146C19.006 99.738 20.638 99.296 22.134 98.82C23.63 98.276 24.786 97.8 25.602 97.392C26.486 96.916 27.676 96.27 29.172 95.454C30.668 94.638 31.926 93.958 32.946 93.414Z" fill="black"/>
<path d="M133.293 71.82C134.253 75.84 135.963 79.5 138.423 82.8C140.943 86.04 144.813 89.79 150.033 94.05L136.983 106.65C132.063 102.99 127.443 97.32 123.123 89.64C118.863 82.02 117.333 76.08 118.533 71.82C125.313 68.76 129.063 65.97 129.783 63.45C130.143 61.95 129.333 61.08 127.353 60.84L126.453 60.75C122.433 60.75 119.343 62.49 117.183 65.97C115.023 69.45 114.123 73.8 114.483 79.02C114.963 82.5 115.533 85.32 116.193 87.48H102.243C99.7226 79.26 98.4326 66.27 98.3726 48.51C98.3126 30.69 99.5726 14.52 102.153 0H120.423C116.283 16.86 114.003 35.46 113.583 55.8C118.143 48.96 124.923 45.66 133.923 45.9C136.263 45.9 138.453 46.38 140.493 47.34C142.533 48.24 144.063 49.56 145.083 51.3C146.163 53.04 146.643 54.96 146.523 57.06C146.463 59.16 145.293 61.53 143.013 64.17C140.793 66.81 137.553 69.36 133.293 71.82Z" fill="black"/>
<path d="M90.48 39.33C88.5 41.31 86.1 42.3 83.28 42.3C80.46 42.3 78.06 41.31 76.08 39.33C74.1 37.29 73.11 34.86 73.11 32.04C73.11 29.22 74.1 26.82 76.08 24.84C78.06 22.8 80.46 21.78 83.28 21.78C86.1 21.78 88.5 22.8 90.48 24.84C92.52 26.82 93.54 29.22 93.54 32.04C93.54 34.86 92.52 37.29 90.48 39.33ZM59.52 136.8L59.34 114.03C62.82 113.25 65.82 112.08 68.34 110.52C70.8 108.96 72.75 107.16 74.19 105.12C75.69 103.14 76.86 100.68 77.7 97.74C78.54 94.8 79.08 91.8 79.32 88.74C79.62 85.68 79.74 82.02 79.68 77.76C79.62 73.14 79.08 68.01 78.06 62.37C77.04 56.73 75.75 51.99 74.19 48.15H90.21C91.53 51.57 92.58 56.22 93.36 62.1C94.14 67.98 94.53 73.23 94.53 77.85C94.53 85.41 93.84 92.43 92.46 98.91C91.08 105.39 89.01 111.24 86.25 116.46C83.49 121.74 79.83 126.12 75.27 129.6C70.77 133.14 65.52 135.54 59.52 136.8Z" fill="black"/>
<path d="M59.5419 136.728C59.5266 136.719 59.5111 136.711 59.496 136.704C59.5117 136.712 59.5272 136.719 59.5419 136.728ZM59.7597 137.022C59.7569 137.012 59.7535 137.002 59.7499 136.991L59.7489 136.99C59.7526 137.001 59.7567 137.011 59.7597 137.022ZM58.8534 136.935C58.8538 136.933 58.855 136.932 58.8564 136.928C58.8567 136.927 58.8569 136.925 58.8573 136.924C58.8551 136.929 58.8538 136.933 58.8534 136.935ZM59.7226 136.926L59.7245 136.927C59.7204 136.919 59.7146 136.911 59.7099 136.903C59.7142 136.911 59.7187 136.918 59.7226 136.926ZM59.6757 136.851C59.6736 136.848 59.672 136.845 59.6698 136.842C59.6664 136.837 59.6617 136.834 59.6581 136.83C59.664 136.837 59.6702 136.843 59.6757 136.851ZM59.6093 136.779C59.601 136.772 59.5924 136.765 59.5839 136.759C59.5925 136.765 59.6011 136.772 59.6093 136.779ZM59.4599 136.687C59.4358 136.678 59.4127 136.671 59.3915 136.666H59.3905C59.4144 136.671 59.4374 136.679 59.4599 136.687ZM59.1259 136.678C59.1245 136.678 59.1233 136.679 59.122 136.68C59.1255 136.678 59.1292 136.678 59.1327 136.677C59.1301 136.678 59.1275 136.677 59.1259 136.678ZM59.2314 136.657C59.2232 136.658 59.2153 136.658 59.2079 136.659C59.2157 136.658 59.2235 136.658 59.2314 136.657ZM59.7782 137.151C59.7782 137.125 59.7751 137.096 59.7695 137.064C59.7744 137.093 59.7782 137.122 59.7782 137.151ZM59.9657 136.805L59.9638 136.821L59.9609 136.837C59.9524 136.888 59.9384 136.929 59.9267 136.957C59.9153 136.985 59.9036 137.006 59.8964 137.019C59.8946 137.023 59.8923 137.026 59.8905 137.029C59.8841 137.045 59.8798 137.056 59.8769 137.064C59.8678 137.09 59.8447 137.154 59.8095 137.219L59.8173 137.203C59.8167 137.205 59.8163 137.207 59.8153 137.21C59.8149 137.211 59.8149 137.213 59.8144 137.215C59.8139 137.216 59.813 137.218 59.8124 137.22L59.8114 137.221C59.8112 137.222 59.811 137.223 59.8105 137.225C59.8095 137.228 59.8077 137.235 59.8056 137.241C59.8015 137.254 59.7936 137.278 59.7821 137.305C59.7613 137.354 59.7073 137.466 59.5859 137.553C59.5655 137.567 59.5129 137.604 59.4394 137.628C59.4154 137.636 59.3051 137.672 59.1669 137.641C59.0843 137.622 58.9733 137.573 58.8866 137.464C58.8 137.355 58.7782 137.235 58.7782 137.151C58.7783 137.037 58.8181 136.933 58.8827 136.849C58.8947 136.817 58.9115 136.777 58.9335 136.737C58.9309 136.742 58.9287 136.746 58.9277 136.748C58.928 136.747 58.9281 136.746 58.9286 136.744C58.93 136.74 58.9324 136.736 58.9345 136.73C58.9482 136.692 58.9641 136.651 58.9765 136.621L58.9902 136.59H58.9911C59.0509 136.381 59.2403 136.227 59.4687 136.227C59.7448 136.227 59.9687 136.45 59.9687 136.727C59.9687 136.729 59.9696 136.766 59.9657 136.805Z" fill="white"/>
<path d="M62.2544 136.129C62.5306 136.129 62.7544 136.353 62.7544 136.629C62.7544 136.889 62.5548 137.101 62.3003 137.124C62.2981 137.124 62.2958 137.125 62.2935 137.126C62.2862 137.129 62.2777 137.133 62.2691 137.136C62.2329 137.148 62.1676 137.166 62.0855 137.172C62.0838 137.173 62.0824 137.175 62.0806 137.176C62.0151 137.217 61.9525 137.237 61.9243 137.246C61.8974 137.254 61.8611 137.263 61.8609 137.264C61.8276 137.273 61.7995 137.277 61.7837 137.279C61.7665 137.281 61.7515 137.282 61.7407 137.283C61.7197 137.284 61.6995 137.284 61.687 137.284H61.6206C61.6119 137.284 61.6043 137.285 61.5991 137.285H61.5972C61.5853 137.288 61.5755 137.293 61.5669 137.295C61.5438 137.3 61.5238 137.302 61.5103 137.304C61.4847 137.306 61.4631 137.307 61.4536 137.307H61.4165C61.4065 137.308 61.4105 137.308 61.4195 137.307C61.3569 137.319 61.2749 137.336 61.0777 137.338C60.9547 137.339 60.7083 137.34 60.5777 137.338C60.5092 137.336 60.4615 137.335 60.4253 137.332C60.4026 137.33 60.3763 137.327 60.3648 137.325V137.324C60.2534 137.538 60.0021 137.645 59.7661 137.567C59.5978 137.511 59.4804 137.375 59.44 137.215C59.4349 137.211 59.4285 137.208 59.4234 137.204C59.3811 137.169 59.2876 137.08 59.2534 136.927C59.2138 136.749 59.2781 136.6 59.3462 136.512C59.4044 136.436 59.4694 136.397 59.4966 136.382C59.5539 136.35 59.6046 136.337 59.6157 136.334C59.6352 136.329 59.6513 136.326 59.6597 136.325C59.6763 136.322 59.6897 136.321 59.6958 136.32C59.7091 136.319 59.7211 136.318 59.7271 136.317C59.7509 136.316 59.7869 136.316 59.8355 136.315C59.9368 136.314 60.1291 136.314 60.2329 136.315C60.3871 136.317 60.4546 136.328 60.4966 136.334C60.4997 136.334 60.5028 136.334 60.5054 136.335L60.5962 136.338C60.7109 136.34 60.9415 136.339 61.0708 136.338C61.1356 136.337 61.1679 136.335 61.1821 136.333C61.1963 136.331 61.1961 136.331 61.231 136.324C61.2894 136.313 61.3414 136.311 61.3794 136.309C61.4163 136.301 61.4484 136.296 61.4722 136.293C61.5239 136.287 61.5719 136.285 61.606 136.284H61.6196C61.6241 136.281 61.6286 136.278 61.6333 136.275C61.754 136.202 61.8785 136.188 61.9634 136.182C61.9677 136.181 61.9726 136.179 61.978 136.177C61.9878 136.173 62.0017 136.168 62.0171 136.164L62.0425 136.157L62.0659 136.148L62.1079 136.141C62.1529 136.132 62.192 136.13 62.2085 136.13C62.2277 136.129 62.2465 136.129 62.2544 136.129ZM61.6021 137.283C61.604 137.283 61.6064 137.283 61.6089 137.282C61.6184 137.28 61.6383 137.275 61.6636 137.264C61.6414 137.273 61.6198 137.278 61.6021 137.283ZM59.439 136.97C59.4373 136.977 59.4358 136.983 59.4351 136.986C59.4336 136.993 59.4325 136.999 59.4321 137.001C59.4316 137.005 59.4322 137.007 59.4321 137.008C59.4363 136.984 59.4409 136.959 59.4487 136.935C59.4437 136.951 59.4406 136.963 59.439 136.97ZM61.314 136.328C61.2994 136.332 61.2818 136.339 61.2622 136.348C61.2909 136.335 61.3197 136.328 61.3462 136.32C61.3369 136.322 61.3258 136.324 61.314 136.328ZM61.9409 136.19H61.9429C61.9441 136.19 61.9457 136.189 61.9478 136.188L61.9409 136.19Z" fill="white"/>
<path d="M62.3026 136.155C62.4503 136.041 62.6553 136.013 62.8329 136.103C63.0794 136.227 63.1781 136.528 63.0536 136.775C63.0119 136.857 62.9614 136.908 62.9452 136.924C62.9419 136.928 62.909 136.961 62.8651 136.993L62.8515 137.002L62.8368 137.011C62.8095 137.028 62.6954 137.102 62.5409 137.127C62.5284 137.13 62.5174 137.131 62.5038 137.134C62.4926 137.137 62.4682 137.142 62.4452 137.146C62.3872 137.157 62.3265 137.164 62.246 137.166C62.1615 137.169 62.0066 137.17 61.9472 137.17C61.9358 137.171 61.9275 137.17 61.9218 137.17C61.9103 137.172 61.9001 137.175 61.8915 137.176C61.8836 137.177 61.8751 137.178 61.869 137.179C61.8627 137.18 61.8578 137.181 61.8534 137.182C61.8524 137.182 61.8513 137.182 61.8505 137.182C61.8185 137.194 61.7772 137.21 61.7313 137.22C61.7158 137.224 61.7015 137.226 61.6933 137.227C61.6852 137.228 61.6818 137.229 61.6786 137.23C61.6483 137.24 61.5963 137.256 61.5116 137.266C61.4402 137.274 61.3476 137.278 61.2186 137.279C60.9909 137.28 60.5529 137.28 60.327 137.277C60.2134 137.275 60.1449 137.273 60.0995 137.27C60.0924 137.27 60.0856 137.268 60.079 137.267C60.0225 137.526 59.7739 137.698 59.5097 137.654C59.2712 137.614 59.1006 137.411 59.0927 137.178L59.0995 137.08C59.1002 137.073 59.1017 137.052 59.1034 137.037C59.1039 137.032 59.1047 137.027 59.1054 137.022C59.0823 136.982 59.061 136.938 59.0487 136.886C59.0315 136.813 59.0189 136.692 59.0751 136.559C59.1345 136.419 59.24 136.337 59.3261 136.294C59.4037 136.256 59.4739 136.247 59.5097 136.243C59.5491 136.238 59.5829 136.238 59.6024 136.239C59.608 136.239 59.6196 136.24 59.6317 136.241C59.7316 136.226 59.8151 136.235 59.8622 136.242C59.8893 136.245 59.9243 136.251 59.9306 136.252C59.9445 136.255 59.9411 136.254 59.9315 136.253C60.0482 136.261 60.0805 136.263 60.1337 136.268C60.1539 136.27 60.1703 136.273 60.1727 136.273H60.1698C60.1888 136.274 60.2358 136.276 60.3388 136.277C60.5563 136.279 60.9879 136.28 61.2147 136.279C61.3193 136.278 61.3689 136.276 61.3895 136.274C61.429 136.262 61.4624 136.253 61.4852 136.249C61.4947 136.247 61.5049 136.246 61.5106 136.245C61.5123 136.244 61.5148 136.243 61.5175 136.242C61.5232 136.24 61.5298 136.237 61.539 136.234C61.5828 136.217 61.622 136.208 61.6435 136.204C61.6672 136.199 61.6893 136.195 61.704 136.193C61.7434 136.187 61.7476 136.187 61.7567 136.185C61.7614 136.184 61.7681 136.183 61.7763 136.181C61.7957 136.178 61.814 136.176 61.831 136.174C61.8611 136.172 61.8958 136.171 61.9354 136.17C62.0207 136.169 62.1413 136.17 62.2128 136.167C62.246 136.166 62.2566 136.164 62.2626 136.163C62.2714 136.161 62.2774 136.159 62.2997 136.155H62.3026Z" fill="white"/>
<path d="M59.8668 136.237C59.894 136.245 59.9173 136.255 59.9351 136.263L59.9986 136.274L60.067 136.294C60.0683 136.294 60.0702 136.294 60.0719 136.294C60.0801 136.295 60.0918 136.296 60.107 136.297C60.1516 136.3 60.2221 136.297 60.3141 136.298C60.3477 136.298 60.3671 136.298 60.3844 136.299C60.3993 136.299 60.4101 136.299 60.4312 136.3C60.4789 136.3 60.5699 136.3 60.6168 136.299V136.3C60.6751 136.296 60.7003 136.292 60.773 136.291H61.1148C61.391 136.291 61.6148 136.515 61.6148 136.791C61.6147 137.067 61.3909 137.291 61.1148 137.291C60.9848 137.291 60.8621 137.29 60.7955 137.291L60.732 137.293C60.7164 137.294 60.7002 137.295 60.6607 137.298L60.648 137.299H60.6353C60.5752 137.3 60.474 137.3 60.4205 137.3C60.3914 137.299 60.3742 137.299 60.359 137.299C60.3459 137.298 60.332 137.298 60.3053 137.298C60.2762 137.297 60.1217 137.299 60.0426 137.294C59.9995 137.291 59.9523 137.286 59.9029 137.278C59.8756 137.305 59.8465 137.332 59.8121 137.352C59.7076 137.416 59.6079 137.422 59.5914 137.424C59.5569 137.427 59.5286 137.426 59.5142 137.425C59.4844 137.423 59.4593 137.419 59.4459 137.417C59.4163 137.412 59.3875 137.405 59.3658 137.399C59.3419 137.393 59.2653 137.374 59.19 137.328C59.1498 137.303 59.1121 137.272 59.0787 137.236C59.0455 137.2 59.0199 137.162 59.0006 137.126C58.9904 137.107 58.9849 137.087 58.9781 137.069C58.9132 136.922 58.9371 136.781 58.9439 136.75L58.9625 136.685C58.9875 136.614 59.0262 136.559 59.065 136.515C59.0889 136.466 59.1261 136.401 59.193 136.345L59.2672 136.293C59.4162 136.205 59.5643 136.219 59.6305 136.23C59.7354 136.21 59.8213 136.225 59.8668 136.237ZM59.567 137.209C59.5734 137.211 59.5787 137.213 59.5787 137.213C59.5819 137.214 59.5702 137.21 59.5553 137.204C59.5605 137.206 59.5645 137.208 59.567 137.209ZM59.3766 137.192C59.3838 137.195 59.3962 137.197 59.4117 137.202C59.3952 137.196 59.3746 137.192 59.3541 137.182C59.3571 137.183 59.3651 137.188 59.3766 137.192ZM59.4586 137.152C59.4859 137.171 59.5052 137.181 59.5074 137.182C59.5168 137.187 59.5257 137.191 59.5328 137.194C59.5156 137.187 59.4895 137.172 59.4586 137.152ZM59.3795 136.457C59.3657 136.462 59.3515 136.47 59.3355 136.477C59.3503 136.47 59.3644 136.462 59.3795 136.457ZM59.4342 136.439C59.4246 136.442 59.4124 136.446 59.398 136.451C59.4193 136.444 59.4408 136.439 59.4625 136.435C59.4538 136.437 59.4441 136.437 59.4342 136.439ZM59.6178 136.432C59.6169 136.431 59.615 136.431 59.6129 136.431C59.6117 136.43 59.6089 136.431 59.6051 136.431C59.6093 136.431 59.6135 136.431 59.6178 136.432ZM59.5074 136.428C59.5032 136.428 59.4983 136.43 59.4928 136.431C59.512 136.428 59.5311 136.428 59.5504 136.428C59.5387 136.428 59.5241 136.426 59.5074 136.428Z" fill="white"/>
</svg>
